<mxfile host="app.diagrams.net" modified="2024-02-13T23:32:48.714Z" agent="Mozilla/5.0 (Macintosh; Intel Mac OS X 10_15_7) AppleWebKit/537.36 (KHTML, like Gecko) Chrome/121.0.0.0 Safari/537.36" etag="1mAND5LmmVLblbQ-gi1Z" version="23.1.4" type="github">
  <diagram name="Page-1" id="SIh1kHcxsE27lNAFwAeg">
    <mxGraphModel dx="1026" dy="589" grid="1" gridSize="10" guides="1" tooltips="1" connect="1" arrows="1" fold="1" page="1" pageScale="1" pageWidth="850" pageHeight="1100" math="0" shadow="0">
      <root>
        <mxCell id="0" />
        <mxCell id="1" parent="0" />
        <mxCell id="L5_pD8rgeulpyrns-hPZ-21" style="edgeStyle=orthogonalEdgeStyle;rounded=0;orthogonalLoop=1;jettySize=auto;html=1;" parent="1" source="L5_pD8rgeulpyrns-hPZ-1" edge="1">
          <mxGeometry relative="1" as="geometry">
            <mxPoint x="350" y="290" as="targetPoint" />
            <Array as="points">
              <mxPoint x="285" y="260" />
              <mxPoint x="350" y="260" />
            </Array>
          </mxGeometry>
        </mxCell>
        <mxCell id="L5_pD8rgeulpyrns-hPZ-1" value="Worker 1" style="rounded=0;whiteSpace=wrap;html=1;" parent="1" vertex="1">
          <mxGeometry x="230" y="180" width="110" height="60" as="geometry" />
        </mxCell>
        <mxCell id="L5_pD8rgeulpyrns-hPZ-2" value="Worker i" style="rounded=0;whiteSpace=wrap;html=1;" parent="1" vertex="1">
          <mxGeometry x="380" y="180" width="110" height="60" as="geometry" />
        </mxCell>
        <mxCell id="L5_pD8rgeulpyrns-hPZ-3" value="Worker W" style="rounded=0;whiteSpace=wrap;html=1;" parent="1" vertex="1">
          <mxGeometry x="520" y="180" width="110" height="60" as="geometry" />
        </mxCell>
        <mxCell id="L5_pD8rgeulpyrns-hPZ-9" style="edgeStyle=orthogonalEdgeStyle;rounded=0;orthogonalLoop=1;jettySize=auto;html=1;entryX=1;entryY=0.5;entryDx=0;entryDy=0;" parent="1" source="L5_pD8rgeulpyrns-hPZ-5" target="L5_pD8rgeulpyrns-hPZ-8" edge="1">
          <mxGeometry relative="1" as="geometry">
            <Array as="points">
              <mxPoint x="305" y="490" />
              <mxPoint x="160" y="490" />
              <mxPoint x="160" y="330" />
            </Array>
          </mxGeometry>
        </mxCell>
        <mxCell id="L5_pD8rgeulpyrns-hPZ-5" value="Task 1" style="rhombus;whiteSpace=wrap;html=1;" parent="1" vertex="1">
          <mxGeometry x="265" y="390" width="80" height="80" as="geometry" />
        </mxCell>
        <mxCell id="L5_pD8rgeulpyrns-hPZ-10" style="edgeStyle=orthogonalEdgeStyle;rounded=0;orthogonalLoop=1;jettySize=auto;html=1;entryX=1;entryY=0.5;entryDx=0;entryDy=0;" parent="1" source="L5_pD8rgeulpyrns-hPZ-6" target="L5_pD8rgeulpyrns-hPZ-8" edge="1">
          <mxGeometry relative="1" as="geometry">
            <Array as="points">
              <mxPoint x="425" y="490" />
              <mxPoint x="160" y="490" />
              <mxPoint x="160" y="330" />
            </Array>
          </mxGeometry>
        </mxCell>
        <mxCell id="L5_pD8rgeulpyrns-hPZ-6" value="Task j" style="rhombus;whiteSpace=wrap;html=1;" parent="1" vertex="1">
          <mxGeometry x="385" y="390" width="80" height="80" as="geometry" />
        </mxCell>
        <mxCell id="L5_pD8rgeulpyrns-hPZ-11" style="edgeStyle=orthogonalEdgeStyle;rounded=0;orthogonalLoop=1;jettySize=auto;html=1;entryX=1;entryY=0.5;entryDx=0;entryDy=0;" parent="1" source="L5_pD8rgeulpyrns-hPZ-7" target="L5_pD8rgeulpyrns-hPZ-8" edge="1">
          <mxGeometry relative="1" as="geometry">
            <Array as="points">
              <mxPoint x="545" y="490" />
              <mxPoint x="160" y="490" />
              <mxPoint x="160" y="330" />
            </Array>
          </mxGeometry>
        </mxCell>
        <mxCell id="L5_pD8rgeulpyrns-hPZ-7" value="Task T" style="rhombus;whiteSpace=wrap;html=1;" parent="1" vertex="1">
          <mxGeometry x="505" y="390" width="80" height="80" as="geometry" />
        </mxCell>
        <mxCell id="L5_pD8rgeulpyrns-hPZ-13" value="" style="group" parent="1" vertex="1" connectable="0">
          <mxGeometry x="180" y="290" width="190" height="80" as="geometry" />
        </mxCell>
        <mxCell id="L5_pD8rgeulpyrns-hPZ-8" value="" style="shape=dataStorage;whiteSpace=wrap;html=1;fixedSize=1;rotation=-180;size=20;" parent="L5_pD8rgeulpyrns-hPZ-13" vertex="1">
          <mxGeometry width="190" height="80" as="geometry" />
        </mxCell>
        <mxCell id="L5_pD8rgeulpyrns-hPZ-12" value="Tasks Channel" style="text;html=1;align=center;verticalAlign=middle;resizable=0;points=[];autosize=1;strokeColor=none;fillColor=none;" parent="L5_pD8rgeulpyrns-hPZ-13" vertex="1">
          <mxGeometry x="45" y="25" width="100" height="30" as="geometry" />
        </mxCell>
        <mxCell id="L5_pD8rgeulpyrns-hPZ-19" style="edgeStyle=orthogonalEdgeStyle;rounded=0;orthogonalLoop=1;jettySize=auto;html=1;entryX=0.116;entryY=1;entryDx=0;entryDy=0;entryPerimeter=0;" parent="L5_pD8rgeulpyrns-hPZ-13" source="L5_pD8rgeulpyrns-hPZ-2" target="L5_pD8rgeulpyrns-hPZ-8" edge="1">
          <mxGeometry relative="1" as="geometry">
            <Array as="points">
              <mxPoint x="255" y="-30" />
              <mxPoint x="168" y="-30" />
            </Array>
          </mxGeometry>
        </mxCell>
        <mxCell id="L5_pD8rgeulpyrns-hPZ-20" style="edgeStyle=orthogonalEdgeStyle;rounded=0;orthogonalLoop=1;jettySize=auto;html=1;entryX=0.108;entryY=1.008;entryDx=0;entryDy=0;entryPerimeter=0;" parent="1" source="L5_pD8rgeulpyrns-hPZ-3" target="L5_pD8rgeulpyrns-hPZ-8" edge="1">
          <mxGeometry relative="1" as="geometry">
            <Array as="points">
              <mxPoint x="575" y="260" />
              <mxPoint x="350" y="260" />
            </Array>
          </mxGeometry>
        </mxCell>
        <mxCell id="L5_pD8rgeulpyrns-hPZ-22" value="" style="group" parent="1" vertex="1" connectable="0">
          <mxGeometry x="440" y="290" width="190" height="80" as="geometry" />
        </mxCell>
        <mxCell id="L5_pD8rgeulpyrns-hPZ-23" value="" style="shape=dataStorage;whiteSpace=wrap;html=1;fixedSize=1;rotation=-180;size=20;" parent="L5_pD8rgeulpyrns-hPZ-22" vertex="1">
          <mxGeometry width="190" height="80" as="geometry" />
        </mxCell>
        <mxCell id="L5_pD8rgeulpyrns-hPZ-24" value="Results Channel" style="text;html=1;align=center;verticalAlign=middle;resizable=0;points=[];autosize=1;strokeColor=none;fillColor=none;" parent="L5_pD8rgeulpyrns-hPZ-22" vertex="1">
          <mxGeometry x="40" y="25" width="110" height="30" as="geometry" />
        </mxCell>
        <mxCell id="L5_pD8rgeulpyrns-hPZ-25" style="edgeStyle=orthogonalEdgeStyle;rounded=0;orthogonalLoop=1;jettySize=auto;html=1;entryX=0.116;entryY=1;entryDx=0;entryDy=0;entryPerimeter=0;" parent="L5_pD8rgeulpyrns-hPZ-22" target="L5_pD8rgeulpyrns-hPZ-23" edge="1">
          <mxGeometry relative="1" as="geometry">
            <Array as="points">
              <mxPoint x="255" y="-30" />
              <mxPoint x="168" y="-30" />
            </Array>
          </mxGeometry>
        </mxCell>
        <mxCell id="L5_pD8rgeulpyrns-hPZ-26" style="edgeStyle=orthogonalEdgeStyle;rounded=0;orthogonalLoop=1;jettySize=auto;html=1;entryX=0.893;entryY=0.462;entryDx=0;entryDy=0;entryPerimeter=0;" parent="1" source="L5_pD8rgeulpyrns-hPZ-1" target="L5_pD8rgeulpyrns-hPZ-23" edge="1">
          <mxGeometry relative="1" as="geometry">
            <Array as="points">
              <mxPoint x="285" y="270" />
              <mxPoint x="420" y="270" />
              <mxPoint x="420" y="333" />
            </Array>
          </mxGeometry>
        </mxCell>
        <mxCell id="L5_pD8rgeulpyrns-hPZ-27" style="edgeStyle=orthogonalEdgeStyle;rounded=0;orthogonalLoop=1;jettySize=auto;html=1;entryX=0.899;entryY=0.417;entryDx=0;entryDy=0;entryPerimeter=0;" parent="1" source="L5_pD8rgeulpyrns-hPZ-2" target="L5_pD8rgeulpyrns-hPZ-23" edge="1">
          <mxGeometry relative="1" as="geometry">
            <Array as="points">
              <mxPoint x="435" y="260" />
              <mxPoint x="420" y="260" />
              <mxPoint x="420" y="337" />
            </Array>
          </mxGeometry>
        </mxCell>
        <mxCell id="L5_pD8rgeulpyrns-hPZ-28" style="edgeStyle=orthogonalEdgeStyle;rounded=0;orthogonalLoop=1;jettySize=auto;html=1;entryX=0.89;entryY=0.492;entryDx=0;entryDy=0;entryPerimeter=0;" parent="1" source="L5_pD8rgeulpyrns-hPZ-3" target="L5_pD8rgeulpyrns-hPZ-23" edge="1">
          <mxGeometry relative="1" as="geometry">
            <Array as="points">
              <mxPoint x="575" y="260" />
              <mxPoint x="420" y="260" />
              <mxPoint x="420" y="331" />
            </Array>
          </mxGeometry>
        </mxCell>
        <mxCell id="L5_pD8rgeulpyrns-hPZ-31" value="" style="group" parent="1" vertex="1" connectable="0">
          <mxGeometry x="230" y="110" width="110" height="60" as="geometry" />
        </mxCell>
        <mxCell id="L5_pD8rgeulpyrns-hPZ-29" value="" style="verticalLabelPosition=bottom;html=1;verticalAlign=top;strokeWidth=2;shape=mxgraph.lean_mapping.physical_pull;pointerEvents=1;" parent="L5_pD8rgeulpyrns-hPZ-31" vertex="1">
          <mxGeometry x="37.5" y="30" width="35" height="30" as="geometry" />
        </mxCell>
        <mxCell id="L5_pD8rgeulpyrns-hPZ-30" value="IO Bound Work" style="text;html=1;align=center;verticalAlign=middle;resizable=0;points=[];autosize=1;strokeColor=none;fillColor=none;" parent="L5_pD8rgeulpyrns-hPZ-31" vertex="1">
          <mxGeometry width="110" height="30" as="geometry" />
        </mxCell>
        <mxCell id="L5_pD8rgeulpyrns-hPZ-32" value="" style="group" parent="1" vertex="1" connectable="0">
          <mxGeometry x="380" y="110" width="110" height="60" as="geometry" />
        </mxCell>
        <mxCell id="L5_pD8rgeulpyrns-hPZ-33" value="" style="verticalLabelPosition=bottom;html=1;verticalAlign=top;strokeWidth=2;shape=mxgraph.lean_mapping.physical_pull;pointerEvents=1;" parent="L5_pD8rgeulpyrns-hPZ-32" vertex="1">
          <mxGeometry x="37.5" y="30" width="35" height="30" as="geometry" />
        </mxCell>
        <mxCell id="L5_pD8rgeulpyrns-hPZ-34" value="IO Bound Work" style="text;html=1;align=center;verticalAlign=middle;resizable=0;points=[];autosize=1;strokeColor=none;fillColor=none;" parent="L5_pD8rgeulpyrns-hPZ-32" vertex="1">
          <mxGeometry width="110" height="30" as="geometry" />
        </mxCell>
        <mxCell id="L5_pD8rgeulpyrns-hPZ-35" value="" style="group" parent="1" vertex="1" connectable="0">
          <mxGeometry x="520" y="110" width="110" height="60" as="geometry" />
        </mxCell>
        <mxCell id="L5_pD8rgeulpyrns-hPZ-36" value="" style="verticalLabelPosition=bottom;html=1;verticalAlign=top;strokeWidth=2;shape=mxgraph.lean_mapping.physical_pull;pointerEvents=1;" parent="L5_pD8rgeulpyrns-hPZ-35" vertex="1">
          <mxGeometry x="37.5" y="30" width="35" height="30" as="geometry" />
        </mxCell>
        <mxCell id="L5_pD8rgeulpyrns-hPZ-37" value="IO Bound Work" style="text;html=1;align=center;verticalAlign=middle;resizable=0;points=[];autosize=1;strokeColor=none;fillColor=none;" parent="L5_pD8rgeulpyrns-hPZ-35" vertex="1">
          <mxGeometry width="110" height="30" as="geometry" />
        </mxCell>
      </root>
    </mxGraphModel>
  </diagram>
</mxfile>
